{"title":"Delicious Bengali Booty Shaheen-=MTR=-@Mastitorrents","uid":6667571,"size":334116107,"categoryP":"porn","categoryS":"movie_clips","magnet":"?xt=urn:btih:b79cf78ff9746962fb0147b4b2d82f3a6f1e2f20&amp;dn=Delicious+Bengali+Booty+Shaheen-%3DMTR%3D-%40Mastitorrents&amp;tr=udp%3A%2F%2Ftracker.openbittorrent.com%3A80&amp;tr=udp%3A%2F%2Fopen.demonii.com%3A1337&amp;tr=udp%3A%2F%2Ftracker.coppersurfer.tk%3A6969&amp;tr=udp%3A%2F%2Fexodus.desync.com%3A6969","seeders":0,"leechers":0,"uploader":"HDvideos","files":-1,"time":1315747422,"description":"mastitorrents.com\n &lt;a href=&quot;\nhttp://mastitorrents.com/forums/index.php&quot; rel=&quot;nofollow&quot; target=&quot;_NEW&quot;&gt;\nhttp://mastitorrents.com/forums/index.php&lt;/a&gt;\n\nDelicious Bengali Booty Shaheen-=MTR=-@Mastitorrents\n &lt;a href=&quot;\nhttp://thepiratebay.se/user/HDvideos/0/7&quot; rel=&quot;nofollow&quot; target=&quot;_NEW&quot;&gt;\nhttp://thepiratebay.se/user/HDvideos/0/7&lt;/a&gt;\n\nComplete name : Delicious Bengali Booty Shaheen.avi\nFormat : AVI\nFormat/Info : Audio Video Interleave\nFile size : 319 MiB\nDuration : 19mn 20s\nOverall bit rate : 2 302 Kbps\nWriting library : Boilsoft AVI tool build 1/release\n\nVideo\n\nID : 0\nFormat : MPEG-4 Visual\nFormat profile : Simple@L1\nFormat settings, BVOP : No\nFormat settings, QPel : No\nFormat settings, GMC : No warppoints\nFormat settings, Matrix : Default (H.263)\nCodec ID : DX50\nCodec ID/Hint : DivX 5\nDuration : 19mn 20s\nBit rate : 2 165 Kbps\nWidth : 720 pixels\nHeight : 480 pixels\nDisplay aspect ratio : 3:2\nFrame rate : 23.976 fps\nStandard : NTSC\nColor space : YUV\nChroma subsampling : 4:2:0\nBit depth : 8 bits\nScan type : Interlaced\nScan order : Top Field First\nCompression mode : Lossy\nBits/(Pixel*Frame) : 0.261\nStream size : 300 MiB (94%)\nWriting library : Lavc52.2.0\n\nAudio\n\nID : 1\nFormat : MPEG Audio\nFormat version : Version 1\nFormat profile : Layer 3\nMode : Joint stereo\nCodec ID : 55\nCodec ID/Hint : MP3\nDuration : 19mn 20s\nBit rate mode : Constant\nBit rate : 128 Kbps\nChannel(s) : 2 channels\nSampling rate : 44.1 KHz\nCompression mode : Lossy\nStream size : 17.7 MiB (6%)\nAlignment : Split accross interleaves\nInterleave, duration : 42 ms (1.00 video frame)\nInterleave, preload duration : 500 ms\n\nRecommended Player:VLC Player\n\nfacebook. com/MastiTorrents\n\nfacebook. com/MastiTorrentsReleasers","torrent":{"xt":"urn:btih:b79cf78ff9746962fb0147b4b2d82f3a6f1e2f20","amp;dn":"Delicious+Bengali+Booty+Shaheen-%3DMTR%3D-%40Mastitorrents","amp;tr":["udp%3A%2F%2Ftracker.openbittorrent.com%3A80","udp%3A%2F%2Fopen.demonii.com%3A1337","udp%3A%2F%2Ftracker.coppersurfer.tk%3A6969","udp%3A%2F%2Fexodus.desync.com%3A6969"],"infoHash":"b79cf78ff9746962fb0147b4b2d82f3a6f1e2f20","infoHashBuffer":{"type":"Buffer","data":[183,156,247,143,249,116,105,98,251,1,71,180,178,216,47,58,111,30,47,32]},"announce":[],"urlList":[]}}